<?xml version="1.0" encoding="utf-8"?>
<svg width="28px" height="15px" viewBox="0 0 28 15" version="1.1" xmlns:xlink="http://www.w3.org/1999/xlink" xmlns="http://www.w3.org/2000/svg">
  <desc>Created with Lunacy</desc>
  <defs>
    <path d="M27.7765 13.4636L25.7839 12.0011L15.0615 1.27875C15.0613 1.27853 15.0608 1.27832 15.0606 1.27811C15.0604 1.27789 15.0602 1.27768 15.0602 1.27746L14.9342 1.1525C14.1861 0.409301 13.1931 0 12.1385 0C10.789 0 9.54488 0.675903 8.81045 1.80789L6.81735 4.87979L0.569305 11.1332C-0.0572509 11.7599 -0.16513 12.711 0.244171 13.4503C0.0969848 13.5484 0 13.7154 0 13.9056C0 14.2076 0.244812 14.4524 0.546875 14.4524L8.36718 14.4524C8.66924 14.4524 8.91405 14.2076 8.91405 13.9056C8.91405 13.6035 8.66924 13.3587 8.36718 13.3587L3.8435 13.3587L11.4312 5.76632L15.1484 9.48336C15.6528 9.98772 16.3154 10.24 16.9781 10.24C17.1251 10.24 17.2718 10.227 17.4169 10.202C17.337 10.9866 17.5965 11.7997 18.1964 12.3995L18.3256 12.5286C18.855 13.0579 19.5501 13.3226 20.2455 13.3226C20.778 13.3226 21.3102 13.1666 21.7682 12.8563L22.2704 13.3587L12.6693 13.3587C12.3673 13.3587 12.1225 13.6035 12.1225 13.9056C12.1225 14.2076 12.3673 14.4524 12.6693 14.4524L27.4531 14.4514C27.6894 14.4514 27.8991 14.2995 27.9728 14.0748C28.0463 13.85 27.9673 13.6035 27.7765 13.4636L27.7765 13.4636ZM25.103 12.8582L25.7836 13.3576L24.7296 13.3576C24.1407 13.3576 23.587 13.1282 23.1706 12.7118L19.375 8.91619L19.771 8.52013C19.9458 8.3456 20.0765 8.14352 20.1639 7.92797L25.0398 12.8041C25.0595 12.8236 25.0806 12.8417 25.103 12.8582ZM1.34305 13.1096C1.01129 12.7781 1.01108 12.238 1.34305 11.9063L7.63168 5.61209C7.65881 5.58517 7.68295 5.55526 7.70367 5.52322L9.72796 2.40326C10.2601 1.58337 11.1612 1.09375 12.1387 1.09375C12.7798 1.09375 13.389 1.30331 13.8889 1.6889L2.54638 13.1094C2.38574 13.27 2.1719 13.3587 1.94461 13.3587C1.71753 13.3587 1.50369 13.2703 1.34305 13.1096ZM15.9217 8.70983L12.2015 4.9898L14.6799 2.44406L18.9977 6.7618C19.2692 7.03332 19.2692 7.47509 18.9977 7.74661L18.0345 8.70983C17.4519 9.29238 16.5043 9.29238 15.9217 8.70983ZM19.0992 11.7552L18.9699 11.626C18.4735 11.1295 18.3669 10.3885 18.6503 9.78713L20.9382 12.0748C20.3367 12.3583 19.5956 12.2517 19.0992 11.7552Z" id="path_1" />
    <clipPath id="clip_1">
      <use xlink:href="#path_1" />
    </clipPath>
  </defs>
  <g id="downward-facing-dog">
    <g id="Shape">
      <use stroke="none" fill="#000000" xlink:href="#path_1" />
      <g clip-path="url(#clip_1)">
        <use xlink:href="#path_1" fill="none" stroke="#FFFFFF" stroke-width="0.6" />
      </g>
    </g>
  </g>
</svg>