<?xml version="1.0" encoding="utf-8"?>
<svg width="29px" height="29px" viewBox="0 0 29 29" version="1.1" xmlns:xlink="http://www.w3.org/1999/xlink" xmlns="http://www.w3.org/2000/svg">
  <desc>Created with Lunacy</desc>
  <g id="link" transform="matrix(0.7071068 0.7071068 0.7071068 -0.7071068 1.239777E-05 11.31371)">
    <path d="M1 5.437C1 7.18454 1.90898 8.7602 3.31332 9.44567C3.56148 9.5668 3.66446 9.86616 3.54333 10.1143C3.4222 10.3625 3.12284 10.4655 2.87468 10.3443C1.11394 9.4849 0 7.55396 0 5.437C0 2.49673 2.46695 0 5.381 0L13.292 0C16.1955 0 18.568 2.44866 18.568 5.4C18.568 8.35201 16.1958 10.8 13.292 10.8L6.813 10.8C6.53686 10.8 6.313 10.5761 6.313 10.3C6.313 10.0239 6.53686 9.8 6.813 9.8L13.292 9.8C15.6364 9.8 17.568 7.80665 17.568 5.4C17.568 2.99399 15.636 1 13.292 1L5.381 1C3.02194 1 1 3.04635 1 5.437ZM22.3475 10.3555C22.3475 8.60996 21.4247 7.09301 19.9645 6.40932C19.7144 6.29223 19.6066 5.99457 19.7237 5.74448C19.8408 5.49439 20.1384 5.38658 20.3885 5.50368C22.2074 6.35532 23.3475 8.2294 23.3475 10.3555C23.3475 13.2829 20.8996 15.6995 17.9715 15.6995L10.0605 15.6995C7.15683 15.6995 4.7845 13.2517 4.7845 10.3005C4.7845 7.34833 7.15681 4.8995 10.0605 4.8995L16.5145 4.8995C16.7906 4.8995 17.0145 5.12336 17.0145 5.3995C17.0145 5.67564 16.7906 5.8995 16.5145 5.8995L10.0605 5.8995C7.71632 5.8995 5.7845 7.89363 5.7845 10.3005C5.7845 12.7063 7.71625 14.6995 10.0605 14.6995L17.9715 14.6995C20.3502 14.6995 22.3475 12.7277 22.3475 10.3555Z" transform="translate(0.3362 0.1509)" id="Combined-Shape" fill="#322B25" fill-rule="evenodd" stroke="none" />
  </g>
</svg>