<?xml version="1.0" encoding="utf-8"?>
<svg width="20px" height="20px" viewBox="0 0 20 20" version="1.1" xmlns:xlink="http://www.w3.org/1999/xlink" xmlns="http://www.w3.org/2000/svg">
  <desc>Created with Lunacy</desc>
  <g id="icon">
    <path d="M11.0498 0.391909L19.5254 8.0534C20.1606 8.62677 20.2386 9.62646 19.7039 10.2995C19.4533 10.6156 19.0822 10.7234 18.6593 10.6942C18.5865 10.6892 18.5131 10.6801 18.4395 10.6675L18.4395 18.8202C18.4395 19.4721 17.9322 20.0133 17.2895 20.0133L12.1837 20.0133C11.9076 20.0133 11.6837 19.7894 11.6837 19.5133L11.6837 12.3959L8.37537 12.3959L8.37537 19.5133C8.37537 19.7894 8.15151 20.0133 7.87537 20.0133L2.76954 20.0133C2.12688 20.0133 1.61954 19.4721 1.61954 18.8202L1.61954 10.6675C1.54584 10.6801 1.47241 10.6892 1.39946 10.6942C0.976287 10.7234 0.605017 10.6157 0.354373 10.2995C-0.179626 9.62584 -0.102053 8.62648 0.532579 8.05365L9.00873 0.391624C9.55493 -0.101277 10.3498 -0.128901 10.9239 0.308752C10.9694 0.329766 11.012 0.357693 11.0498 0.391909ZM10.4618 1.20839C10.423 1.18861 10.3866 1.16369 10.3537 1.13403C10.1557 0.955324 9.87671 0.955324 9.679 1.13374L1.20289 8.79573C0.961382 9.01372 0.930151 9.41606 1.13803 9.67832C1.14637 9.68883 1.20335 9.70537 1.33051 9.69658C1.43974 9.68903 1.56699 9.66167 1.6981 9.62037C1.79673 9.5893 1.87326 9.55879 1.91069 9.54158C2.24193 9.3893 2.61954 9.6313 2.61954 9.99587L2.61954 18.8202C2.61954 18.9337 2.69409 19.0133 2.76954 19.0133L7.37537 19.0133L7.37537 11.8959C7.37537 11.6197 7.59923 11.3959 7.87537 11.3959L12.1837 11.3959C12.4598 11.3959 12.6837 11.6197 12.6837 11.8959L12.6837 19.0133L17.2895 19.0133C17.365 19.0133 17.4395 18.9337 17.4395 18.8202L17.4395 9.99587C17.4395 9.63123 17.8173 9.38923 18.1485 9.54164C18.1859 9.55884 18.2623 9.58934 18.3609 9.6204C18.4919 9.6617 18.619 9.68906 18.7282 9.69659C18.8551 9.70535 18.9119 9.68885 18.9205 9.67789C19.1285 9.41611 19.0972 9.01399 18.8551 8.79548L10.4618 1.20839Z" transform="translate(-0.007370369 0.029)" id="icon" fill="#322B25" stroke="none" />
  </g>
</svg>