<?xml version="1.0" encoding="utf-8"?>
<svg width="23px" height="13px" viewBox="0 0 23 13" version="1.1" xmlns:xlink="http://www.w3.org/1999/xlink" xmlns="http://www.w3.org/2000/svg">
  <desc>Created with Lunacy</desc>
  <path d="M0.5 13C-0.166667 13 -0.166667 12 0.5 12L22.5 12C23.1667 12 23.1667 13 22.5 13L0.5 13ZM11.5 1L11.5 0L11.5 1ZM0.5 1C-0.166667 1 -0.166667 0 0.5 0L22.5 0C23.1667 0 23.1667 1 22.5 1L0.5 1ZM11.5 7L11.5 6L11.5 7ZM0.5 7C-0.166667 7 -0.166667 6 0.5 6L22.5 6C23.1667 6 23.1667 7 22.5 7L0.5 7Z" id="Combined-Shape" fill="#322B25" stroke="none" />
</svg>