<?xml version="1.0" encoding="utf-8"?>
<svg xmlns="http://www.w3.org/2000/svg" width="16" height="16" viewBox="0 0 16 16"><g><g><g><path fill="#305a4a" d="M7.715 13.424c-.322.21-1.115.753-1.221.822-.283.181-.443.25-.573.256a.471.471 0 0 1-.168-.026c-.168-.055-.26-.155-.385-.436-.082-.186-.468-1.28-.58-1.571a.513.513 0 0 0-.454-.332 32.1 32.1 0 0 0-1.02-.036c-.867-.023-1.04-.064-1.186-.266l-.007-.01c-.166-.238-.369.69.406-2.18a.512.512 0 0 0-.175-.537 28.831 28.831 0 0 0-.56-.441c.03.023-.353-.271-.439-.339-.274-.214-.416-.343-.502-.456a.453.453 0 0 1-.104-.303c0-.12.029-.203.103-.301.086-.113.228-.242.501-.455l.44-.339c.21-.16.383-.296.566-.444a.514.514 0 0 0 .174-.536c-.762-2.845-.57-1.945-.396-2.187l.002-.003c.147-.201.316-.24 1.186-.263.574-.014.698-.018 1.021-.035a.511.511 0 0 0 .456-.33c.114-.297.499-1.38.58-1.565.127-.284.22-.385.388-.44a.465.465 0 0 1 .16-.024c.142.004.317.079.61.268.102.067.883.612 1.191.813.172.113.39.112.562 0 .321-.207 1.117-.753 1.227-.824.283-.181.443-.25.573-.254a.465.465 0 0 1 .163.026c.168.055.26.154.384.435.083.185.47 1.28.581 1.573a.51.51 0 0 0 .454.33c.324.017.44.021 1.023.037.865.023 1.037.064 1.184.266l.008.01c.165.24.364-.673-.407 2.18-.054.2.014.407.175.537.181.147.354.282.56.442-.03-.023.353.27.44.339.273.214.415.342.501.456.075.1.104.184.104.303a.45.45 0 0 1-.103.3c-.085.113-.227.24-.5.454l-.442.34c-.208.16-.382.296-.565.444a.51.51 0 0 0-.174.536c.769 2.876.569 1.945.393 2.19-.146.201-.316.24-1.186.263-.573.015-.697.018-1.02.035a.511.511 0 0 0-.456.33c-.113.294-.499 1.381-.58 1.566-.127.283-.22.384-.389.438a.467.467 0 0 1-.163.025c-.143-.005-.317-.08-.609-.27-.099-.065-.878-.609-1.188-.81a.511.511 0 0 0-.564 0zm.282.613c.34.226 1.005.69 1.106.756.386.251.655.368.95.378.131.005.261-.014.392-.057.374-.12.595-.36.791-.801.087-.194.422-1.135.56-1.506.25-.012.402-.017.905-.03 1.083-.027 1.389-.098 1.708-.536l.008-.01c.225-.316.261-.64.16-1.11-.044-.206-.323-1.157-.43-1.542.152-.123.302-.24.476-.373-.045.034.355-.272.445-.343.317-.247.491-.404.622-.577.16-.212.238-.436.238-.702 0-.266-.077-.492-.24-.706-.131-.173-.305-.33-.622-.578-.088-.07-.472-.365-.443-.342a29.52 29.52 0 0 1-.472-.371c.107-.383.388-1.332.433-1.537.102-.467.07-.787-.149-1.102l-.016-.023c-.318-.439-.627-.511-1.705-.54a34.539 34.539 0 0 1-.906-.031c-.139-.376-.474-1.32-.56-1.514-.195-.438-.415-.676-.787-.797a1.128 1.128 0 0 0-.392-.06c-.28.01-.535.119-.91.36-.112.071-.798.541-1.148.772C7.673.89 7.006.425 6.901.356c-.388-.251-.66-.368-.956-.376a1.128 1.128 0 0 0-.383.058c-.373.12-.595.36-.79.802-.087.194-.422 1.133-.56 1.505-.25.013-.402.017-.906.03-1.083.027-1.388.098-1.707.536l-.006.008c-.227.316-.264.64-.163 1.112.044.207.325 1.16.432 1.542-.151.121-.3.238-.476.373.065-.05-.354.27-.445.342-.317.247-.491.405-.622.577a1.116 1.116 0 0 0-.239.703c0 .266.077.492.24.707.131.173.305.33.622.578l.443.342c.174.134.322.25.472.37-.108.385-.389 1.334-.433 1.539-.102.468-.07.788.15 1.103l.014.02c.319.44.627.512 1.709.54.508.014.656.019.903.03.137.373.473 1.318.559 1.513.195.439.415.678.787.8.137.044.269.063.402.058.279-.012.531-.12.906-.36.108-.07.792-.54 1.143-.771z"/></g></g></g></svg>