<?xml version="1.0" encoding="utf-8"?>
<svg width="227px" height="227px" viewBox="0 0 227 227" version="1.1" xmlns:xlink="http://www.w3.org/1999/xlink" xmlns="http://www.w3.org/2000/svg">
  <desc>Created with Lunacy</desc>
  <path d="M193.005 37.053L194.304 38.403L194.304 32.267L194.079 32.048C183.449 21.493 171.047 13.24 157.224 7.49799L156.189 7.06799L156.189 11.651L156.641 11.837C170.36 17.698 182.594 26.184 193.005 37.053ZM192.953 54.371L194.304 56.186L194.304 49.152L194.143 48.949C184.272 36.607 171.521 26.535 157.255 19.818L156.189 19.307L156.189 23.985L156.611 24.188C170.855 31.121 183.423 41.559 192.953 54.371ZM192.87 75.96L194.304 78.975L194.304 69.371L194.209 69.199C185.667 53.639 172.901 40.923 157.303 32.43L156.189 31.828L156.189 36.677L156.573 36.889C172.267 45.785 185.152 59.657 192.87 75.96ZM190.017 113.388C190.017 155.637 155.647 190.012 113.387 190.012C93.975 190.012 75.418 182.653 61.126 169.283L60.595 168.783L57.595 171.793L58.153 172.319C73.236 186.47 92.851 194.273 113.387 194.273C157.985 194.273 194.272 157.991 194.272 113.387C194.272 85.985 180.47 60.659 157.35 45.62L156.189 44.87L156.189 49.865L156.516 50.083C177.495 64.418 190.017 88.088 190.017 113.388ZM178.761 113.388C178.761 149.445 149.432 178.762 113.387 178.762C96.965 178.762 81.231 172.564 69.079 161.319L68.548 160.83L65.543 163.846L66.11 164.372C79.063 176.397 95.855 183.018 113.386 183.018C151.786 183.018 183.015 151.784 183.015 113.388C183.015 92.494 173.682 72.871 157.411 59.554L156.187 58.559L156.187 64.093L156.441 64.309C170.625 76.769 178.761 94.66 178.761 113.388ZM167.516 113.388C167.516 143.236 143.235 167.512 113.387 167.512C99.96 167.512 87.053 162.496 77.028 153.371L76.502 152.888L73.491 155.893L74.069 156.423C84.887 166.314 98.846 171.768 113.387 171.768C145.578 171.768 171.767 145.58 171.767 113.388C171.767 99.45 166.699 85.929 157.511 75.296L156.189 73.782L156.189 80.384L156.339 80.593C163.652 90.132 167.516 101.48 167.516 113.388ZM156.189 114.824L156.136 115.845C154.855 138.505 136.078 156.255 113.387 156.255C102.949 156.255 92.8561 152.412 84.9751 145.407L84.4451 144.937L81.4451 147.932L82.0331 148.468C90.7111 156.234 101.845 160.51 113.387 160.51C139.375 160.51 160.516 139.379 160.516 113.386C160.516 107.865 159.547 102.438 157.642 97.258L156.189 93.307L156.189 111.963C156.194 112.153 156.209 112.355 156.22 112.557C156.245 112.833 156.26 113.104 156.26 113.386C156.26 113.667 156.245 113.948 156.22 114.222C156.208 114.429 156.194 114.632 156.189 114.824ZM199.236 39.392L199.236 42.142C215.855 62.137 225.017 87.44 225.017 113.388C225.017 133.036 219.914 151.514 210.964 167.568C191.877 201.805 155.291 225.013 113.387 225.013C51.839 225.013 1.766 174.939 1.766 113.388C1.766 51.843 51.839 1.761 113.387 1.761C126.36 1.761 139.099 3.998 151.261 8.398L151.261 6.511C139.099 2.192 126.36 0 113.387 0C50.871 0 0 50.871 0 113.388C0 175.908 50.871 226.773 113.387 226.773C175.912 226.773 226.772 175.908 226.772 113.388C226.772 86.205 217.001 59.98 199.236 39.392ZM113.387 213.768C58.0431 213.768 13.0171 168.731 13.0171 113.388C13.0171 58.043 58.0431 13.014 113.387 13.014C126.48 13.014 139.214 15.511 151.261 20.442L151.261 18.558C139.172 13.714 126.433 11.256 113.387 11.256C57.0691 11.256 11.2561 57.074 11.2561 113.388C11.2561 169.705 57.0681 215.523 113.387 215.523C169.709 215.523 215.523 169.706 215.523 113.388C215.523 93.71 209.892 74.65 199.236 58.15L199.236 61.429C208.736 77.075 213.762 95.035 213.762 113.388C213.762 168.73 168.736 213.768 113.387 213.768ZM24.266 113.388C24.266 64.249 64.251 24.259 113.387 24.259C126.616 24.259 139.344 27.118 151.261 32.733L151.261 30.798C139.308 25.293 126.573 22.501 113.387 22.501C63.283 22.501 22.501 63.272 22.501 113.388C22.501 163.506 63.282 204.278 113.387 204.278C163.5 204.278 204.272 163.507 204.272 113.388C204.272 103.127 202.574 93.09 199.236 83.518L199.236 89.497C201.408 97.293 202.512 105.327 202.512 113.388C202.512 162.528 162.532 202.507 113.387 202.507C64.251 202.507 24.266 162.527 24.266 113.388ZM33.7561 113.388C33.7561 133.434 41.3031 152.601 55.0221 167.393L56.2561 166.142C42.8811 151.689 35.5171 132.97 35.5171 113.388C35.5171 70.454 70.4501 35.523 113.387 35.523C126.563 35.523 139.636 38.95 151.261 45.455L151.261 43.383C139.657 37.088 126.573 33.76 113.387 33.76C69.4811 33.759 33.7561 69.485 33.7561 113.388ZM45.0061 113.388C45.0061 130.44 51.3811 146.773 62.9701 159.434L64.2151 158.195C52.9591 145.871 46.7721 129.976 46.7721 113.388C46.7721 76.653 76.6581 46.768 113.387 46.768C126.974 46.768 140.037 50.889 151.261 58.695L151.261 56.486C140.011 48.981 126.916 45.012 113.387 45.012C75.6791 45.012 45.0061 75.689 45.0061 113.388ZM56.2561 113.388C56.2561 127.435 61.4651 140.954 70.9341 151.486L72.1731 150.236C63.0371 140.038 58.0171 126.974 58.0171 113.388C58.0171 82.856 82.8561 58.017 113.387 58.017C127.533 58.017 140.938 63.356 151.261 73.078L151.261 70.736C140.755 61.4 127.319 56.257 113.387 56.257C81.8921 56.257 56.2561 81.887 56.2561 113.388ZM151.261 90.86L151.261 87.516C142.667 74.986 128.527 67.506 113.387 67.506C88.0901 67.506 67.5061 88.089 67.5061 113.387C67.5061 124.449 71.5431 135.13 78.8921 143.521L80.1261 142.282C73.1161 134.23 69.2671 123.981 69.2671 113.387C69.2671 89.053 89.0651 69.267 113.387 69.267C128.947 69.268 143.293 77.496 151.261 90.86Z" id="ring" fill="#009e79" stroke="none" />
</svg>