<svg xmlns="http://www.w3.org/2000/svg" width="48" height="45" viewBox="0 0 48 45"><g><g><path fill="#322b25" d="M12.583 42.84v-2.968-19.036-.913H2.167v22.916zm5.155-27.585c3.183-3.852 4.955-7.732 4.643-11.31-.38-4.362 3.805-5.209 6.589-1.929 2.762 3.255 3.302 8.922.809 15.864h13.56c2.533 0 4.194 1.87 4.191 4.191-.001 1.337-.554 2.523-1.505 3.29.755.761 1.179 1.83 1.168 3.016-.016 1.835-1.066 3.392-2.748 3.956.42.666.65 1.468.65 2.334-.002 1.947-1.173 3.576-3.044 4.05a3.96 3.96 0 0 1 .597 1.836c.15 2.253-1.62 3.92-4.49 3.92l-.125.002c-.56.005-1.333-.001-2.289-.028a95.08 95.08 0 0 1-4.59-.242c-4.47-.342-8.908-.98-13.063-1.986a57.387 57.387 0 0 1-3.424-.939v2.601c0 .575-.467 1.042-1.042 1.042h-12.5A1.042 1.042 0 0 1 .083 43.88v-25c0-.575.467-1.042 1.042-1.042h12.5c.467 0 .862.307.994.73 1.065-1 2.127-2.113 3.12-3.314zM38.14 32.559a1.042 1.042 0 0 1 0-2.083H43.013c1.291 0 2.086-.894 2.097-2.118.01-1.222-.763-2.099-2.097-2.099-1.39 0-1.39-2.083 0-2.083h.327c1.317 0 2.106-.886 2.107-2.107.002-1.221-.784-2.105-2.107-2.105H28.263c-.741 0-1.245-.751-.965-1.437 2.837-6.93 2.477-12.343.084-15.163-1.628-1.917-3.101-1.62-2.926.4.37 4.24-1.614 8.585-5.112 12.818a38.37 38.37 0 0 1-4.677 4.736v17.777c1.248.404 2.555.77 3.915 1.1 4.035.977 8.364 1.599 12.73 1.933a93 93 0 0 0 4.49.237c.93.026 1.678.032 2.212.027l.126-.002c1.739 0 2.495-.712 2.429-1.697-.066-.987-.916-1.823-2.066-1.838h-1.507a1.042 1.042 0 1 1 0-2.083H40.904c1.318 0 2.107-.886 2.108-2.107 0-1.221-.786-2.106-2.108-2.106a1.4 1.4 0 0 1-.034 0z"/></g></g></svg>