<?xml version="1.0" encoding="utf-8"?>
<svg width="17px" height="24px" viewBox="0 0 17 24" version="1.1" xmlns:xlink="http://www.w3.org/1999/xlink" xmlns="http://www.w3.org/2000/svg">
  <desc>Created with Lunacy</desc>
  <path d="M12.9959 4.69433C12.8869 7.17635 10.7883 9.10165 8.3052 8.99586C5.82194 8.88694 3.89837 6.78934 4.0042 4.30533C4.11317 1.82107 6.21197 -0.10447 8.69422 0.00439812C11.177 0.110179 13.1017 2.20997 12.9959 4.69433ZM8.65102 1.00346C6.72027 0.918784 5.08802 2.41628 5.00327 4.34852C4.92095 6.28063 6.41704 7.91208 8.3484 7.99679C10.2794 8.07906 11.9118 6.5815 11.9968 4.65144C12.079 2.7186 10.5822 1.08574 8.65102 1.00346ZM0.998712 22.5362C0.978732 22.8116 0.739265 23.0187 0.463846 22.9987C0.188427 22.9787 -0.018647 22.7393 0.00133239 22.4639C0.00863536 22.3632 0.025599 22.1803 0.0549645 21.9269C0.103536 21.5077 0.169998 21.0413 0.257131 20.5395C0.506277 19.1046 0.871654 17.6689 1.37702 16.3241C2.84021 12.4306 5.17481 10.0356 8.57542 10.0004C12.0028 9.96493 14.3173 12.3762 15.7271 16.3322C16.2063 17.6769 16.5467 19.1124 16.7728 20.5472C16.8519 21.0489 16.9112 21.5151 16.9535 21.9342C16.979 22.1876 16.9933 22.3704 16.9992 22.4709C17.0152 22.7466 16.8048 22.9831 16.5291 22.9992C16.2534 23.0153 16.0169 22.8048 16.0009 22.5291C15.9958 22.4422 15.9826 22.2734 15.9585 22.0346C15.918 21.6334 15.8611 21.1855 15.785 20.7029C15.5678 19.3251 15.2413 17.9482 14.7851 16.6679C13.5023 13.0682 11.4886 10.9703 8.58577 11.0004C5.68982 11.0303 3.64726 13.1257 2.3131 16.6759C1.83198 17.9562 1.48158 19.333 1.24239 20.7106C1.15861 21.1931 1.09479 21.6409 1.04832 22.042C1.02066 22.2807 1.00501 22.4494 0.998712 22.5362Z" id="Shape" fill="#322B25" stroke="none" />
</svg>