<svg xmlns="http://www.w3.org/2000/svg" width="12" height="16" viewBox="0 0 12 16"><g><g><path fill="#305a4a" d="M1.032 15.028c.031-.267.074-.566.13-.888.16-.918.393-1.836.713-2.69.89-2.366 2.252-3.763 4.182-3.783 1.935-.02 3.278 1.378 4.133 3.778.304.854.522 1.772.667 2.69A16.12 16.12 0 0 1 11 15.353a.333.333 0 1 0 .665-.039 16.8 16.8 0 0 0-.15-1.283 15.716 15.716 0 0 0-.698-2.81c-.94-2.637-2.483-4.244-4.768-4.22-2.267.023-3.823 1.62-4.799 4.215-.337.897-.58 1.854-.746 2.81a16.618 16.618 0 0 0-.17 1.283.333.333 0 0 0 .664.048c.004-.057.015-.17.033-.329zm7.3-11.594a2.334 2.334 0 1 1-4.661-.203 2.334 2.334 0 0 1 4.66.203zM6.128.336a3 3 0 1 0-.26 5.993A3 3 0 0 0 6.13.336z"/></g></g></svg>