<?xml version="1.0" encoding="utf-8"?>
<svg width="18px" height="18px" viewBox="0 0 18 18" version="1.1" xmlns:xlink="http://www.w3.org/1999/xlink" xmlns="http://www.w3.org/2000/svg">
  <desc>Created with Lunacy</desc>
  <g id="icon/plus">
    <path d="M0.155951 0.123038L0.123038 0.155951Q0.131299 0.14769 0.139923 0.139923Q0.0347323 0.256723 0.0347323 0.405881Q0.0347323 0.483997 0.0660482 0.557067Q0.097364 0.630137 0.155951 0.688724L5.46723 6L0.155951 11.3113Q0.0973641 11.3699 0.0660482 11.4429Q0.0347324 11.516 0.0347323 11.5941Q0.0347323 11.7433 0.139923 11.8601Q0.131299 11.8523 0.123038 11.844L0.155951 11.877Q0.14769 11.8687 0.139923 11.8601Q0.16917 11.8864 0.202001 11.9066Q0.234833 11.9268 0.270254 11.9402Q0.305676 11.9537 0.342615 11.9599Q0.379554 11.9662 0.416891 11.9651Q0.454229 11.964 0.490834 11.9556Q0.52744 11.9472 0.562204 11.9317Q0.596969 11.9162 0.62884 11.8941Q0.660712 11.8721 0.688724 11.844L6 6.53277L11.3113 11.844Q11.3393 11.8721 11.3712 11.8941Q11.403 11.9162 11.4378 11.9317Q11.4726 11.9472 11.5092 11.9556Q11.5458 11.964 11.5831 11.9651Q11.6204 11.9662 11.6574 11.9599Q11.6943 11.9537 11.7297 11.9402Q11.7652 11.9268 11.798 11.9066Q11.8308 11.8864 11.8601 11.8601Q11.8523 11.8687 11.844 11.877L11.877 11.844Q11.8687 11.8523 11.8601 11.8601Q11.8864 11.8308 11.9066 11.798Q11.9268 11.7652 11.9402 11.7297Q11.9537 11.6943 11.9599 11.6574Q11.9662 11.6204 11.9651 11.5831Q11.964 11.5458 11.9556 11.5092Q11.9472 11.4726 11.9317 11.4378Q11.9162 11.403 11.8941 11.3712Q11.8721 11.3393 11.844 11.3113L6.53277 6L11.844 0.688724Q11.8721 0.660712 11.8941 0.62884Q11.9162 0.596969 11.9317 0.562205Q11.9472 0.52744 11.9556 0.490835Q11.964 0.454229 11.9651 0.416892Q11.9662 0.379554 11.9599 0.342615Q11.9537 0.305677 11.9402 0.270255Q11.9268 0.234834 11.9066 0.202002Q11.8864 0.169171 11.8601 0.139924Q11.8687 0.147691 11.877 0.155951L11.844 0.123038Q11.8523 0.131299 11.8601 0.139924Q11.7433 0.0347324 11.5941 0.0347324Q11.516 0.0347324 11.4429 0.0660482Q11.3699 0.0973641 11.3113 0.155951L6 5.46723L0.688724 0.155951Q0.660712 0.127938 0.62884 0.105857Q0.596969 0.083775 0.562204 0.0682929Q0.52744 0.0528108 0.490834 0.0443971Q0.454229 0.0359835 0.416891 0.0348931Q0.379554 0.0338027 0.342615 0.0400685Q0.305676 0.0463344 0.270254 0.0597667Q0.234833 0.0731991 0.202001 0.0933911Q0.16917 0.113583 0.139923 0.139923Q0.14769 0.131299 0.155951 0.123038Z" transform="matrix(0.7071068 0.7071068 -0.7071068 0.7071068 9 0.5147188)" id="Combined-Shape" fill="#322B25" fill-rule="evenodd" stroke="none" />
  </g>
</svg>