<?xml version="1.0" encoding="utf-8"?>
<svg width="20px" height="20px" viewBox="0 0 20 20" version="1.1" xmlns:xlink="http://www.w3.org/1999/xlink" xmlns="http://www.w3.org/2000/svg">
  <desc>Created with Lunacy</desc>
  <path d="M0.146447 0.308905L0.308905 0.146447Q0.382138 0.0732134 0.473476 0.0340685Q0.564814 -0.00507627 0.662458 -0.00507626Q0.760103 -0.00507626 0.851441 0.0340686Q0.942779 0.0732134 1.01601 0.146447L9.79289 8.92333L18.5698 0.146447Q18.6061 0.11013 18.6476 0.0818054Q18.6891 0.0534803 18.7343 0.0340686Q18.7796 0.0146568 18.8273 0.00479027Q18.8749 -0.00507623 18.9233 -0.00507621Q18.9718 -0.0050762 19.0194 0.00479033Q19.067 0.0146569 19.1123 0.0340687Q19.1576 0.0534805 19.1991 0.0818056Q19.2406 0.110131 19.2769 0.146447L19.4393 0.308905Q19.5126 0.382138 19.5517 0.473476Q19.5909 0.564814 19.5909 0.662459Q19.5909 0.760103 19.5517 0.851441Q19.5126 0.942779 19.4393 1.01601L10.6625 9.79289L19.4393 18.5698Q19.4757 18.6061 19.504 18.6476Q19.5323 18.6891 19.5517 18.7343Q19.5711 18.7796 19.581 18.8273Q19.5909 18.8749 19.5909 18.9233Q19.5909 18.9718 19.581 19.0194Q19.5711 19.067 19.5517 19.1123Q19.5323 19.1576 19.504 19.1991Q19.4757 19.2406 19.4393 19.2769L19.2769 19.4393Q19.2406 19.4757 19.1991 19.504Q19.1576 19.5323 19.1123 19.5517Q19.067 19.5711 19.0194 19.581Q18.9718 19.5909 18.9233 19.5909Q18.8749 19.5909 18.8273 19.581Q18.7796 19.5711 18.7343 19.5517Q18.6891 19.5323 18.6476 19.504Q18.6061 19.4757 18.5698 19.4393L9.79289 10.6625L1.01601 19.4393Q0.942779 19.5126 0.851441 19.5517Q0.760103 19.5909 0.662459 19.5909Q0.564814 19.5909 0.473476 19.5517Q0.382138 19.5126 0.308905 19.4393L0.146447 19.2769Q0.110131 19.2406 0.0818056 19.1991Q0.0534805 19.1576 0.0340687 19.1123Q0.0146569 19.067 0.00479034 19.0194Q-0.0050762 18.9718 -0.00507621 18.9233Q-0.00507623 18.8749 0.00479027 18.8273Q0.0146568 18.7796 0.0340686 18.7343Q0.0534803 18.6891 0.0818054 18.6476Q0.11013 18.6061 0.146447 18.5698L8.92333 9.79289L0.146447 1.01601Q0.0732134 0.942779 0.0340686 0.851441Q-0.00507628 0.760103 -0.00507628 0.662458Q-0.00507628 0.564814 0.0340685 0.473476Q0.0732134 0.382138 0.146447 0.308905Z" id="Combined-Shape" fill="#322B25" fill-rule="evenodd" stroke="none" />
</svg>