<svg xmlns="http://www.w3.org/2000/svg" width="22" height="22" viewBox="0 0 22 22"><g><g><g transform="scale(1 -1) rotate(45 34.556 0)"><g><path fill="#322b25" d="M15.612 9.68c1.339.626 2.185 2.017 2.185 3.617 0 2.174-1.831 3.982-4.011 3.982H6.534c-2.15 0-3.92-1.827-3.92-4.033 0-2.206 1.77-4.034 3.92-4.034h5.916a.458.458 0 1 0 0-.917H6.534c-2.662 0-4.837 2.245-4.837 4.951 0 2.706 2.175 4.95 4.837 4.95h7.252c2.684 0 4.928-2.216 4.928-4.9 0-1.948-1.046-3.666-2.713-4.447a.458.458 0 1 0-.389.83zM.35 12.462c-1.287-.629-2.12-2.073-2.12-3.675 0-2.191 1.853-4.067 4.015-4.067h7.252c2.149 0 3.92 1.828 3.92 4.033 0 2.206-1.771 4.034-3.92 4.034h-5.94a.458.458 0 1 0 0 .916h5.94c2.662 0 4.836-2.244 4.836-4.95 0-2.705-2.174-4.95-4.836-4.95H2.244c-2.671 0-4.932 2.289-4.932 4.984 0 1.94 1.02 3.71 2.635 4.498a.458.458 0 1 0 .402-.823z"/></g></g></g></g></svg>