<svg xmlns="http://www.w3.org/2000/svg" width="110" height="129" viewBox="0 0 110 129"><g><g><g><g><path fill="#322b25" d="M109.889 124.09c0 .682-.113 1.309-.35 1.882a4.397 4.397 0 0 1-.972 1.48 4.493 4.493 0 0 1-1.47.979 4.714 4.714 0 0 1-1.837.353 4.72 4.72 0 0 1-1.842-.353 4.498 4.498 0 0 1-1.469-.979 4.54 4.54 0 0 1-.971-1.48 4.908 4.908 0 0 1-.352-1.882c0-.68.116-1.306.352-1.878.236-.573.56-1.067.971-1.484.414-.412.906-.74 1.469-.976a4.747 4.747 0 0 1 1.842-.352c.659 0 1.275.117 1.838.352a4.525 4.525 0 0 1 1.469.976c.415.417.74.91.971 1.484a4.86 4.86 0 0 1 .351 1.878zm-.951.008c0-.522-.084-1.014-.25-1.485a3.705 3.705 0 0 0-.732-1.24 3.478 3.478 0 0 0-1.162-.852 3.64 3.64 0 0 0-1.534-.314c-.57 0-1.085.106-1.54.314-.456.21-.842.494-1.16.851a3.64 3.64 0 0 0-.727 1.24c-.17.472-.253.964-.253 1.486s.084 1.017.253 1.487c.163.47.409.882.726 1.234.318.353.704.634 1.161.842.455.21.97.314 1.54.314.568 0 1.08-.104 1.534-.314.457-.208.844-.49 1.162-.842a3.64 3.64 0 0 0 .731-1.234c.167-.47.25-.965.25-1.487zM95.3 128.556h-.903v-8.124h-2.976v-.804h6.855v.804H95.3zm-8-1.324h.027v-7.604h.904v8.928H87.1l-5.175-7.68H81.9v7.68h-.9v-8.928h1.13zm-10.4 1.324h-.908v-8.928h.909zm-12.34 0v-3.847l-3.33-5.08h1.131l2.673 4.324 2.7-4.325h1.056l-3.33 5.081v3.847zm-5.705-.807v.807h-5.663v-8.928h5.509v.804h-4.606v3.068h4.305v.806h-4.305v3.443zm-10.842-.517h.028v-7.604h.904v8.928h-1.131l-5.172-7.68h-.025v7.68h-.906v-8.928h1.133zm-15.668 1.324v-8.928h2.61c.437 0 .84.041 1.214.124.372.085.695.22.967.411.27.19.482.436.634.739.148.303.224.671.224 1.107a2.196 2.196 0 0 1-1.368 2.07 3.087 3.087 0 0 1-.903.228l2.596 4.249h-1.103l-2.46-4.173h-1.51v4.173zm.901-4.957h1.573c.729 0 1.287-.132 1.683-.396.392-.266.588-.664.588-1.194 0-.292-.055-.54-.162-.742a1.363 1.363 0 0 0-.454-.492 1.999 1.999 0 0 0-.701-.277 4.282 4.282 0 0 0-.919-.088h-1.608zm-8.415 5.19c-.671 0-1.22-.115-1.646-.345a2.885 2.885 0 0 1-1.017-.878 3.223 3.223 0 0 1-.522-1.153 5.25 5.25 0 0 1-.144-1.18v-5.6h.903v5.499c0 .363.043.713.127 1.052.085.343.22.647.409.91.187.265.439.48.746.642.311.165.692.246 1.143.246.453 0 .834-.081 1.144-.246a2.09 2.09 0 0 0 .744-.641c.19-.264.326-.568.41-.91.083-.34.123-.69.123-1.053v-5.499h.906v5.6c0 .371-.048.764-.144 1.18a3.134 3.134 0 0 1-.522 1.153 2.929 2.929 0 0 1-1.022.878c-.431.23-.976.344-1.638.344zm-7.112-4.699c0 .682-.116 1.309-.35 1.882a4.478 4.478 0 0 1-.972 1.48 4.516 4.516 0 0 1-1.47.979 4.749 4.749 0 0 1-1.842.353 4.728 4.728 0 0 1-1.84-.353 4.48 4.48 0 0 1-1.466-.979 4.442 4.442 0 0 1-.972-1.48 4.864 4.864 0 0 1-.353-1.882c0-.68.116-1.306.353-1.878a4.445 4.445 0 0 1 .972-1.484c.414-.412.903-.74 1.466-.976a4.754 4.754 0 0 1 1.84-.352c.661 0 1.275.117 1.842.352a4.548 4.548 0 0 1 1.47.976c.414.417.737.91.971 1.484.235.572.351 1.199.351 1.878zm-.954.008c0-.522-.083-1.014-.252-1.485a3.694 3.694 0 0 0-.727-1.24 3.508 3.508 0 0 0-1.161-.852 3.657 3.657 0 0 0-1.54-.314c-.568 0-1.08.106-1.535.314-.456.21-.845.494-1.16.851-.319.355-.563.771-.73 1.24-.17.472-.252.964-.252 1.486s.082 1.017.252 1.487c.167.47.412.882.73 1.234.315.353.703.634 1.16.842.455.21.967.314 1.535.314.571 0 1.085-.104 1.54-.314.454-.208.843-.49 1.16-.842a3.63 3.63 0 0 0 .728-1.234c.169-.47.252-.965.252-1.487zM.84 126.735c.07.355.223.65.473.89.244.238.57.357.971.357.31 0 .566-.055.765-.17.204-.111.363-.267.485-.458.124-.193.207-.414.252-.662.045-.246.068-.504.068-.773v-6.285h.906v6.356c0 .296-.032.606-.095.933-.064.33-.182.631-.359.91a2.083 2.083 0 0 1-.727.687c-.31.18-.706.269-1.194.269-.643 0-1.176-.17-1.595-.515a2.225 2.225 0 0 1-.79-1.313z"/></g></g><g><path fill="#322b25" d="M75.905 5.762l-.219-.09V3.44l.502.209a55.349 55.349 0 0 1 17.86 11.95l.108.107v2.987l-.63-.657c-5.044-5.29-10.973-9.422-17.62-12.275zm-.014 6.013l-.205-.1V9.399l.517.25c6.911 3.269 13.088 8.172 17.87 14.18l.078.099v3.424l-.654-.884C88.88 20.231 82.79 15.15 75.89 11.775zm-.019 6.182l-.186-.103v-2.36l.54.293a44.896 44.896 0 0 1 17.88 17.895l.045.083v4.675l-.694-1.468c-3.74-7.934-9.982-14.686-17.585-19.015zm-.03 6.423l-.16-.106v-2.432l.563.365c11.203 7.321 17.89 19.65 17.89 32.989 0 21.713-17.582 39.375-39.192 39.375-9.95 0-19.455-3.799-26.763-10.687l-.27-.256 1.453-1.466.257.244c6.926 6.508 15.917 10.09 25.323 10.09 20.477 0 37.131-16.733 37.131-37.3A37.373 37.373 0 0 0 75.841 24.38zm-.03 6.925l-.123-.105v-2.694l.593.484c7.886 6.483 12.409 16.035 12.409 26.206 0 18.691-15.135 33.896-33.744 33.896-8.496 0-16.634-3.223-22.911-9.077l-.275-.256 1.456-1.468.258.238c5.889 5.474 13.514 8.491 21.472 8.491 17.468 0 31.682-14.271 31.682-31.824 0-9.116-3.943-17.825-10.817-23.89zm-.053 7.927l-.073-.102v-3.213l.64.737c4.453 5.176 6.91 11.757 6.91 18.542 0 15.671-12.692 28.42-28.29 28.42-7.047 0-13.811-2.656-19.054-7.47l-.28-.258 1.46-1.463.254.235c4.858 4.442 11.113 6.884 17.62 6.884 14.463 0 26.23-11.818 26.23-26.348 0-5.796-1.873-11.32-5.417-15.964zm-.053 16.37a4.512 4.512 0 0 0 0-.81c-.005-.098-.013-.197-.015-.29v-9.08l.704 1.922a22.768 22.768 0 0 1 1.393 7.851c0 12.654-10.246 22.94-22.84 22.94-5.595 0-10.99-2.081-15.196-5.862l-.285-.26 1.454-1.459.257.23c3.819 3.409 8.71 5.28 13.77 5.28 10.996 0 20.096-8.64 20.717-19.672l.026-.497c.002-.093.01-.192.015-.293zm34.184-.406c0 30.435-24.646 55.195-54.945 55.195C24.651 110.391 0 85.631 0 55.196 0 24.764 24.651 0 54.945 0c6.287 0 12.46 1.067 18.353 3.17v.918A53.567 53.567 0 0 0 54.945.858C25.12.857.855 25.236.855 55.195c0 29.963 24.265 54.339 54.09 54.339 29.827 0 54.094-24.376 54.094-54.339a54.53 54.53 0 0 0-12.493-34.682v-1.338a55.256 55.256 0 0 1 13.344 36.02zm-6.31-.002a48.88 48.88 0 0 0-7.038-25.292v-1.596a49.572 49.572 0 0 1 7.892 26.888c0 27.414-22.2 49.716-49.491 49.716-27.29 0-49.489-22.303-49.489-49.716 0-27.412 22.2-49.715 49.489-49.715a48.921 48.921 0 0 1 18.352 3.555v.917a48.004 48.004 0 0 0-18.352-3.616c-26.818 0-48.635 21.919-48.635 48.859s21.817 48.862 48.635 48.862c26.82 0 48.637-21.923 48.637-48.862zM54.945 98.579c23.815 0 43.189-19.462 43.189-43.383 0-3.924-.535-7.835-1.588-11.63v-2.91a44.205 44.205 0 0 1 2.44 14.54c0 24.398-19.757 44.245-44.04 44.245-24.28 0-44.042-19.848-44.042-44.245 0-24.396 19.762-44.243 44.041-44.243 6.39 0 12.561 1.36 18.353 4.04v.941a42.558 42.558 0 0 0-18.353-4.125c-23.81 0-43.186 19.467-43.186 43.387S31.135 98.58 54.945 98.58zm-.003-82.145c6.39 0 12.729 1.62 18.351 4.685v1.008c-5.632-3.166-11.967-4.835-18.351-4.835-20.805 0-37.731 17.004-37.731 37.904 0 9.533 3.568 18.645 10.049 25.68l-.598.61c-6.648-7.201-10.304-16.531-10.304-26.29 0-21.371 17.31-38.762 38.584-38.762zm0 5.477c6.555 0 12.9 1.933 18.351 5.586v1.075c-5.438-3.8-11.767-5.806-18.35-5.806-17.797 0-32.278 14.548-32.278 32.43 0 8.075 2.998 15.813 8.452 21.812l-.604.603c-5.615-6.163-8.704-14.114-8.704-22.415 0-18.351 14.862-33.284 33.133-33.284zm0 5.474c6.75 0 13.261 2.504 18.351 7.049v1.14c-5.001-4.733-11.497-7.332-18.35-7.332-14.794 0-26.83 12.092-26.83 26.954 0 6.614 2.433 12.973 6.86 17.938l-.6.608c-4.588-5.127-7.112-11.708-7.112-18.546 0-15.334 12.421-27.81 27.681-27.81zm0 6.334c-11.784 0-21.377 9.63-21.377 21.474a21.47 21.47 0 0 0 5.262 14.064l-.598.603a22.305 22.305 0 0 1-5.517-14.667c0-12.313 9.974-22.332 22.23-22.332 7.336 0 14.187 3.641 18.351 9.74v1.627c-3.86-6.504-10.811-10.509-18.35-10.51z"/></g></g></g></svg>