<svg xmlns="http://www.w3.org/2000/svg" width="30" height="35" viewBox="0 0 30 35"><g><g><g><g><path fill="#322b25" d="M29.97 33.668c0 .185-.031.355-.096.51a1.192 1.192 0 0 1-.665.668 1.291 1.291 0 0 1-.502.095c-.18 0-.348-.031-.502-.095a1.227 1.227 0 0 1-.4-.266 1.231 1.231 0 0 1-.266-.402 1.326 1.326 0 0 1-.095-.51c0-.184.031-.354.095-.51.065-.155.153-.29.265-.402.113-.112.247-.201.4-.265a1.3 1.3 0 0 1 .503-.096c.18 0 .348.032.502.096a1.198 1.198 0 0 1 .666.667c.064.156.095.326.095.51zm-.26.002c0-.142-.022-.275-.068-.403a1.004 1.004 0 0 0-.2-.336.949.949 0 0 0-.316-.231.997.997 0 0 0-.419-.086c-.155 0-.296.03-.42.086a.951.951 0 0 0-.514.567 1.172 1.172 0 0 0-.07.403c0 .142.023.276.07.403a.95.95 0 0 0 .515.563.992.992 0 0 0 .42.086.99.99 0 0 0 .418-.085.95.95 0 0 0 .516-.564c.046-.127.068-.261.068-.403zm-3.719 1.21h-.246v-2.205h-.812v-.218h1.87v.218h-.812zm-2.182-.36h.008v-2.063h.246v2.422h-.308l-1.411-2.083h-.008v2.083h-.246v-2.422h.309zm-2.836.36h-.248v-2.423h.248zm-3.366 0v-1.044l-.908-1.379h.309l.729 1.174.736-1.174h.288l-.908 1.379v1.043zm-1.555-.22v.22h-1.545v-2.423h1.503v.218h-1.256v.833h1.174v.218h-1.174v.935zm-2.957-.14h.007v-2.063h.247v2.422h-.309l-1.41-2.083h-.007v2.083h-.247v-2.422h.31zm-4.273.36v-2.423h.711c.12 0 .23.011.332.034.1.023.189.06.263.111a.536.536 0 0 1 .173.2c.04.083.061.183.061.301a.593.593 0 0 1-.373.562.845.845 0 0 1-.246.062l.708 1.153h-.3l-.672-1.133h-.411v1.132zm.245-1.346h.43c.198 0 .35-.035.458-.107a.365.365 0 0 0 .16-.324.426.426 0 0 0-.043-.201.37.37 0 0 0-.124-.134.547.547 0 0 0-.192-.075 1.174 1.174 0 0 0-.25-.024h-.439zm-2.295 1.409a.943.943 0 0 1-.448-.094.786.786 0 0 1-.278-.238.873.873 0 0 1-.142-.313 1.417 1.417 0 0 1-.04-.32v-1.52h.247v1.493c0 .098.012.193.034.285.024.093.06.175.112.247.05.072.12.13.203.174a.661.661 0 0 0 .312.067.66.66 0 0 0 .312-.067.57.57 0 0 0 .203-.174.703.703 0 0 0 .112-.247c.022-.092.033-.187.033-.285v-1.492h.247v1.52c0 .1-.013.206-.039.319a.848.848 0 0 1-.142.313.798.798 0 0 1-.279.238.944.944 0 0 1-.447.094zm-1.94-1.275c0 .185-.03.355-.095.51a1.214 1.214 0 0 1-.666.668 1.3 1.3 0 0 1-.502.095c-.18 0-.347-.031-.502-.095a1.205 1.205 0 0 1-.665-.667 1.314 1.314 0 0 1-.096-.511c0-.184.032-.354.096-.51a1.205 1.205 0 0 1 .665-.667c.155-.064.322-.096.502-.096s.348.032.502.096c.154.064.288.153.401.265.113.113.201.247.265.402.064.156.096.326.096.51zm-.26.002c0-.142-.022-.275-.068-.403a.957.957 0 0 0-.935-.653 1 1 0 0 0-.419.086.945.945 0 0 0-.316.23c-.087.097-.154.21-.2.337a1.172 1.172 0 0 0-.068.403c0 .142.023.276.069.403a.944.944 0 0 0 .516.563.988.988 0 0 0 .418.086.994.994 0 0 0 .42-.085.958.958 0 0 0 .515-.564c.046-.127.069-.261.069-.403zm-4.343.716a.44.44 0 0 0 .129.241.366.366 0 0 0 .265.097.417.417 0 0 0 .209-.046c.055-.03.099-.073.132-.125a.488.488 0 0 0 .069-.18c.012-.066.018-.136.018-.209V32.46h.247v1.724c0 .08-.009.165-.026.253a.7.7 0 0 1-.098.247.567.567 0 0 1-.524.26.664.664 0 0 1-.434-.14.603.603 0 0 1-.216-.356z"/></g></g><g><path fill="#322b25" d="M20.701 1.563l-.06-.024V.934l.137.056a15.1 15.1 0 0 1 4.871 3.243l.03.029v.81l-.172-.178a14.525 14.525 0 0 0-4.806-3.33zm-.004 1.632l-.055-.027V2.55l.14.067a13.807 13.807 0 0 1 4.874 3.848l.022.027v.929l-.179-.24a13.23 13.23 0 0 0-4.802-3.986zm-.005 1.677l-.05-.028v-.64l.147.08a12.213 12.213 0 0 1 4.876 4.854l.013.023v1.268l-.19-.398a11.773 11.773 0 0 0-4.796-5.159zm-.008 1.743l-.043-.029v-.66l.153.1c3.055 1.986 4.88 5.33 4.88 8.95 0 5.89-4.796 10.683-10.69 10.683a10.64 10.64 0 0 1-7.299-2.9l-.073-.07.396-.397.07.066a10.084 10.084 0 0 0 6.907 2.738c5.584 0 10.126-4.54 10.126-10.12 0-3.342-1.655-6.468-4.427-8.361zm-.008 1.879l-.034-.029v-.73l.162.13a9.159 9.159 0 0 1 3.384 7.11c0 5.072-4.127 9.197-9.203 9.197a9.166 9.166 0 0 1-6.248-2.462l-.075-.07.397-.398.07.064a8.607 8.607 0 0 0 5.857 2.304c4.764 0 8.64-3.872 8.64-8.634a8.635 8.635 0 0 0-2.95-6.482zm-.014 2.15l-.02-.027v-.872l.174.2a7.698 7.698 0 0 1 1.884 5.03c0 4.253-3.46 7.711-7.715 7.711A7.69 7.69 0 0 1 9.79 20.66l-.077-.07.398-.397.07.064a7.129 7.129 0 0 0 4.805 1.867c3.945 0 7.154-3.206 7.154-7.148 0-1.573-.511-3.072-1.477-4.332zm-.015 4.442a1.22 1.22 0 0 0 0-.22l-.004-.078v-2.464l.192.521c.252.685.38 1.401.38 2.13 0 3.434-2.794 6.224-6.23 6.224a6.213 6.213 0 0 1-4.144-1.59l-.077-.07.396-.396.07.062a5.652 5.652 0 0 0 3.756 1.432c2.999 0 5.48-2.344 5.65-5.337l.007-.135c0-.025.002-.052.004-.08zm9.323-.11c0 8.257-6.722 14.975-14.985 14.975C6.723 29.951 0 23.233 0 14.976S6.723 0 14.985 0c1.715 0 3.398.29 5.005.86v.25a14.677 14.677 0 0 0-5.005-.877C6.851.233.233 6.847.233 14.976c0 8.13 6.618 14.743 14.752 14.743 8.135 0 14.753-6.614 14.753-14.743 0-3.427-1.21-6.77-3.407-9.41v-.363a14.946 14.946 0 0 1 3.639 9.773zm-1.72 0a13.21 13.21 0 0 0-1.92-6.863V7.68a13.4 13.4 0 0 1 2.152 7.295c0 7.438-6.055 13.489-13.498 13.489-7.442 0-13.496-6.051-13.496-13.489 0-7.437 6.054-13.488 13.496-13.488 1.724 0 3.408.324 5.006.964V2.7a13.151 13.151 0 0 0-5.006-.981C7.671 1.719 1.72 7.666 1.72 14.975c0 7.31 5.95 13.257 13.264 13.257 7.315 0 13.265-5.948 13.265-13.257zm-13.265 11.77c6.495 0 11.779-5.28 11.779-11.77 0-1.065-.146-2.126-.433-3.156v-.79c.44 1.265.665 2.59.665 3.946 0 6.62-5.388 12.004-12.01 12.004-6.623 0-12.012-5.385-12.012-12.004 0-6.62 5.39-12.004 12.011-12.004 1.743 0 3.426.369 5.005 1.096v.255a11.657 11.657 0 0 0-5.005-1.119c-6.494 0-11.778 5.282-11.778 11.772s5.284 11.77 11.778 11.77zm0-22.287c1.742 0 3.47.44 5.004 1.27v.274a10.27 10.27 0 0 0-5.005-1.311c-5.674 0-10.29 4.613-10.29 10.284 0 2.586.973 5.058 2.74 6.967l-.163.166a10.457 10.457 0 0 1-2.81-7.133c0-5.799 4.721-10.517 10.523-10.517zm0 1.486c1.787 0 3.517.524 5.004 1.515v.292a8.721 8.721 0 0 0-5.005-1.575c-4.853 0-8.803 3.947-8.803 8.799 0 2.19.818 4.29 2.305 5.918l-.164.163a8.983 8.983 0 0 1-2.374-6.081c0-4.98 4.053-9.031 9.036-9.031zm0 1.485c1.84 0 3.616.68 5.004 1.912v.31a7.266 7.266 0 0 0-5.005-1.99c-4.034 0-7.317 3.281-7.317 7.314a7.28 7.28 0 0 0 1.871 4.866l-.164.166a7.514 7.514 0 0 1-1.94-5.032c0-4.16 3.388-7.546 7.55-7.546zm0 1.718a5.835 5.835 0 0 0-5.83 5.827c0 1.399.508 2.752 1.434 3.816l-.163.163a6.034 6.034 0 0 1-1.504-3.98c0-3.34 2.72-6.058 6.062-6.058 2.001 0 3.87.988 5.005 2.642V12a5.829 5.829 0 0 0-5.005-2.852z"/></g></g></g></svg>