<?xml version="1.0" encoding="utf-8"?>
<svg width="16px" height="24px" viewBox="0 0 16 24" version="1.1" xmlns:xlink="http://www.w3.org/1999/xlink" xmlns="http://www.w3.org/2000/svg">
  <desc>Created with Lunacy</desc>
  <path d="M5.499 24L0.5 24C0.223858 24 0 23.7761 0 23.5L0 0.5C0 0.223858 0.223858 0 0.5 0L5.499 0C5.77514 0 5.999 0.223858 5.999 0.5L5.999 23.5C5.999 23.7761 5.77514 24 5.499 24ZM1 1L1 23L4.999 23L4.999 1L1 1Z" id="Stroke-874" fill="#fff" fill-rule="evenodd" stroke="none" />
  <path d="M5.499 24L0.5 24C0.223858 24 0 23.7761 0 23.5L0 0.5C0 0.223858 0.223858 0 0.5 0L5.499 0C5.77514 0 5.999 0.223858 5.999 0.5L5.999 23.5C5.999 23.7761 5.77514 24 5.499 24ZM4.999 1L1 1L1 23L4.999 23L4.999 1Z" transform="translate(10.00098 0)" id="Stroke-875" fill="#fff" fill-rule="evenodd" stroke="none" />
</svg>