<?xml version="1.0" encoding="utf-8"?>
<svg width="23px" height="20px" viewBox="0 0 23 20" version="1.1" xmlns:xlink="http://www.w3.org/1999/xlink" xmlns="http://www.w3.org/2000/svg">
  <desc>Created with Lunacy</desc>
  <g id="Group-141">
    <path d="M9.16808 18.8173C14.0849 19.2363 18.3764 15.6339 18.7944 10.728C18.7965 10.7036 18.8003 10.6798 18.8057 10.6566L16.3964 12.1351C16.1611 12.2795 15.8532 12.2058 15.7088 11.9705C15.5643 11.7351 15.638 11.4272 15.8734 11.2828L19.0314 9.3448C19.2667 9.2004 19.5745 9.27404 19.719 9.50932L21.692 12.7223C21.8365 12.9576 21.7629 13.2655 21.5276 13.41C21.2922 13.5545 20.9843 13.4809 20.8398 13.2456L19.7202 11.4223C18.9655 16.5653 14.3438 20.262 9.08326 19.8137C3.62112 19.3493 -0.429027 14.5452 0.0364185 9.08309C0.500814 3.62197 5.30481 -0.428141 10.7671 0.0362635C13.3768 0.258696 15.74 1.48262 17.4223 3.42181C17.6033 3.6304 17.5809 3.94619 17.3723 4.12714C17.1637 4.3081 16.8479 4.2857 16.6669 4.07711C15.1535 2.33261 13.0299 1.23275 10.6823 1.03266C5.77033 0.615046 1.45042 4.25705 1.03281 9.16791C0.614259 14.0798 4.25622 18.3997 9.16808 18.8173Z" transform="translate(0.9954796 0.09914275)" id="icon" fill="#322B25" fill-rule="evenodd" stroke="none" />
  </g>
</svg>