<?xml version="1.0" encoding="utf-8"?>
<svg width="18px" height="16px" viewBox="0 0 18 16" version="1.1" xmlns:xlink="http://www.w3.org/1999/xlink" xmlns="http://www.w3.org/2000/svg">
  <desc>Created with Lunacy</desc>
  <path d="M13.5252 11.4213L16.1754 8.47529C17.1607 7.3805 16.3928 5.76994 15.0943 5.66484C14.8332 5.6437 14.6049 5.84434 14.5843 6.11298C14.5638 6.38162 14.7588 6.61652 15.0199 6.63766C15.5722 6.68236 15.8922 7.35361 15.4793 7.81241L12.8291 10.7585C12.6512 10.9563 12.6628 11.265 12.855 11.448C13.0472 11.631 13.3473 11.6191 13.5252 11.4213ZM9.55131 15.5392C9.66591 13.4227 10.0944 11.774 10.8829 10.8969L14.5062 6.86979C14.6661 6.69161 14.8368 6.62264 15.0204 6.63739C15.2815 6.65838 15.5097 6.45761 15.5301 6.18896C15.5505 5.92031 15.3554 5.68551 15.0943 5.66452C14.6209 5.62648 14.1663 5.81016 13.8097 6.20732L10.1867 10.2342C9.20725 11.3236 8.73017 13.1594 8.60425 15.4849C8.58968 15.754 8.78988 15.9842 9.0514 15.9992C9.31293 16.0142 9.53674 15.8083 9.55131 15.5392ZM13.3632 15.4992C13.3415 14.6553 13.4045 14.1831 13.4924 14.1028C15.564 12.2076 16.0859 11.5895 17.0693 9.98353C17.7332 8.6263 17.8271 8.35025 17.8722 7.47C17.8745 7.42607 17.908 3.97452 17.9984 1.72129C18.0381 0.727436 17.3363 0.0345164 16.4455 0.0012437C15.5478 -0.0322877 14.8039 0.614703 14.7628 1.6401L14.5835 6.13093C14.5728 6.40017 14.7762 6.6274 15.0379 6.63846C15.2997 6.64952 15.5205 6.44022 15.5313 6.17098L15.7105 1.68022C15.7293 1.21197 16.017 0.961711 16.4111 0.976429C16.8 0.990958 17.0677 1.25521 17.0507 1.68116C16.9594 3.95681 16.9259 7.40079 16.925 7.41859C16.8884 8.1316 16.8312 8.29981 16.244 9.5048C15.3331 10.988 14.8696 11.537 12.8623 13.3734C12.4664 13.7351 12.3847 14.3472 12.415 15.525C12.4219 15.7943 12.6398 16.0069 12.9016 15.9998C13.1634 15.9927 13.3701 15.7686 13.3632 15.4992ZM5.17085 10.7585L2.52065 7.81248C2.10769 7.35361 2.42772 6.68236 2.97998 6.63766C3.24111 6.61652 3.43613 6.38162 3.41559 6.11298C3.39504 5.84434 3.16671 5.6437 2.90559 5.66484C1.60711 5.76994 0.839252 7.3805 1.82457 8.47537L4.4747 11.4213C4.65261 11.6191 4.95267 11.631 5.14491 11.448C5.33714 11.265 5.34876 10.9563 5.17085 10.7585ZM9.39566 15.4849C9.26974 13.1594 8.79265 11.3236 7.81336 10.2343L4.18985 6.20693C3.83366 5.81016 3.379 5.62648 2.90565 5.66452C2.64452 5.68551 2.44937 5.92031 2.46977 6.18896C2.49017 6.45761 2.7184 6.65838 2.97953 6.63739C3.16306 6.62264 3.33379 6.69161 3.49339 6.8694L7.11713 10.897C7.90552 11.774 8.33399 13.4227 8.4486 15.5392C8.46317 15.8083 8.68698 16.0142 8.94851 15.9992C9.21003 15.9842 9.41023 15.754 9.39566 15.4849ZM5.58503 15.525C5.6153 14.3472 5.53357 13.7351 5.13751 13.3732C3.13036 11.537 2.66688 10.988 1.73327 9.46339C1.16877 8.29981 1.11156 8.1316 1.07499 7.41859C1.07408 7.40079 1.04059 3.95681 0.94933 1.68107C0.932332 1.25521 1.19997 0.990958 1.58894 0.976429C1.98296 0.961711 2.2707 1.21197 2.28946 1.68029L2.46873 6.17098C2.47948 6.44022 2.70035 6.64952 2.96206 6.63846C3.22376 6.6274 3.42721 6.40017 3.41646 6.13093L3.23719 1.64017C3.1961 0.614703 2.45224 -0.0322877 1.55452 0.0012437C0.663733 0.0345164 -0.0380616 0.727436 0.00160206 1.7212C0.0919652 3.97452 0.125526 7.42607 0.127779 7.47C0.172918 8.35025 0.266822 8.6263 0.908019 9.94212C1.91413 11.5895 2.43599 12.2076 4.50742 14.1026C4.59547 14.1831 4.65852 14.6553 4.63683 15.4992C4.62991 15.7686 4.83656 15.9927 5.0984 15.9998C5.36024 16.0069 5.57811 15.7943 5.58503 15.525Z" id="Combined-Shape" fill="#322B25" stroke="none" />
</svg>