<?xml version="1.0" encoding="utf-8"?>
<svg width="12px" height="25px" viewBox="0 0 12 25" version="1.1" xmlns:xlink="http://www.w3.org/1999/xlink" xmlns="http://www.w3.org/2000/svg">
  <desc>Created with Lunacy</desc>
  <g id="icon">
    <path d="M11 5.27592C11 2.02016 8.57672 -0.0294176 5.49517 0.000319277C2.43253 0.0298738 0 2.10291 0 5.27592L0 14.6989C0 17.8796 2.43158 19.9496 5.49618 19.973C8.57575 19.9966 11 17.9452 11 14.6989L11 5.27592ZM1.0082 14.9868C1.14765 17.4122 3.05048 18.9543 5.50382 18.9731C7.96662 18.9919 9.85682 17.4696 9.99223 14.9868L1.0082 14.9868ZM10 13.9868L10 5.27592C10 2.61439 8.06239 0.975592 5.50482 1.00027C2.95679 1.02486 1 2.69247 1 5.27592L1 13.9868L10 13.9868ZM6 21.4868L6 22.9868L9 22.9868C9.66667 22.9868 9.66667 23.9868 9 23.9868L2 23.9868C1.33333 23.9868 1.33333 22.9868 2 22.9868L5.0137 22.9868L5 22.4868L5 21.4868C5 20.8202 6 20.8202 6 21.4868Z" transform="translate(0.9863 0.013179)" id="icon" fill="#322B25" fill-rule="evenodd" stroke="none" />
  </g>
</svg>