<?xml version="1.0" encoding="utf-8"?>
<svg xmlns="http://www.w3.org/2000/svg" width="16" height="16" viewBox="0 0 16 16"><g><g><g><path fill="#8e491d" d="M14.949 6.49L11.06 9.58a.333.333 0 0 0-.113.353l1.414 4.89c.037.126-.076.214-.153.158l-4.011-2.923a.333.333 0 0 0-.393 0L3.793 14.98c-.077.056-.19-.032-.154-.159l1.413-4.889a.333.333 0 0 0-.113-.353L1.05 6.489c-.095-.075-.044-.241.055-.244l4.884-.104a.333.333 0 0 0 .31-.228L7.9 1.083c.037-.11.161-.11.198 0l1.603 4.83a.333.333 0 0 0 .31.228l4.883.104c.099.003.15.17.054.245zM10.26 5.48L8.731.873a.765.765 0 0 0-1.463.001L5.74 5.48l-4.648.099C.355 5.596.063 6.555.635 7.01l3.714 2.95L3 14.637c-.208.718.58 1.327 1.187.882L8 12.74l3.815 2.78c.61.443 1.395-.167 1.187-.883L11.65 9.962l3.714-2.95c.573-.457.281-1.416-.454-1.433z"/></g></g></g></svg>