<svg xmlns="http://www.w3.org/2000/svg" width="22" height="16" viewBox="0 0 22 16"><g><g><path fill="#322b25" d="M19.25 4.063a6.454 6.454 0 0 1-1.595 1.63c.203 4.426-3.151 9.36-9.087 9.36a9.155 9.155 0 0 1-4.9-1.413 6.531 6.531 0 0 0 3.546-.577c.371.116.765.182 1.17.19l-.24-.728c.086-.06.172-.124.257-.189-.111-.002-.22-.01-.328-.022l-.233-.704a5.54 5.54 0 0 1-.686.453 3.189 3.189 0 0 1-1.539-1.434c.33.167.687.293 1.065.367l.178-.899c-.45.12-.943.148-1.444.054.054.166.121.325.201.478a4.134 4.134 0 0 1-1.377-1.13l-.174-.536 1.102.208c.438.458 1.02.793 1.692.926l-.237-.886c-.335.09-.688.105-1.037.039l-.418-.079a3.089 3.089 0 0 1-.872-2.2c.43.236.924.378 1.447.394a3.122 3.122 0 0 1-.989-4.202 9.117 9.117 0 0 0 5.637 3.192c.016.102.036.205.06.307l.224-.268c.22.027.443.046.668.057a3.116 3.116 0 0 1-.084-.76l.13-.155a8.362 8.362 0 0 1-.124-.007c.106-1.599 1.456-2.942 3.193-2.942.92 0 1.751.382 2.334.994a6.466 6.466 0 0 0 2.03-.764 3.162 3.162 0 0 1-1.406 1.741 6.462 6.462 0 0 0 1.836-.495zm-12.096 8c.287.126.596.212.92.25l.07.212a6.45 6.45 0 0 1-.93.538 4.137 4.137 0 0 1-1.118-.547 5.544 5.544 0 0 0 1.058-.453zm4.11-6.534a3.075 3.075 0 0 0-.007.162l-.584.703a9.223 9.223 0 0 1-.284-.04 3.998 3.998 0 0 1-.038-.935c.3.053.604.09.912.11zM20.432.814l-2.075 1.212c-.41.239-.849.425-1.308.553a4.14 4.14 0 0 0-2.594-.908c-2.211 0-3.945 1.701-4.105 3.748a8.193 8.193 0 0 1-4.893-2.84l-.83-1.004-.665 1.121a4.007 4.007 0 0 0-.494 2.778l-.055-.03-.037 1.505a3.971 3.971 0 0 0 .861 2.55l.304.935c.28.86.835 1.584 1.554 2.082a5.64 5.64 0 0 1-2.323.213l-4.002-.464 3.407 2.15a10.07 10.07 0 0 0 5.39 1.556c5.829 0 9.996-4.59 10.013-9.833a7.367 7.367 0 0 0 1.428-1.56l1.784-2.626-2.014.88z"/></g></g></svg>